<svg xmlns="http://www.w3.org/2000/svg" viewBox="0 0 192.76 192.76"><defs><style>.cls-1{fill:#fff;}.cls-1,.cls-2{fill-rule:evenodd;}.cls-2{fill:#1d1d1b;}</style></defs><title>converse</title><g id="Layer_2" data-name="Layer 2"><g id="Layer_1-2" data-name="Layer 1"><polygon class="cls-1" points="0 0 192.76 0 192.76 192.76 0 192.76 0 0 0 0"/><path class="cls-2" d="M43.6,83.51h-15a4.74,4.74,0,0,0-4.74,4.74v16.19a4.74,4.74,0,0,0,4.74,4.74h15a4.75,4.75,0,0,0,4.75-4.74V88.25a4.75,4.75,0,0,0-4.75-4.74ZM41.1,98.43l3.4,10-8.12-6.31-7.86,6.25,3.13-9.76-7.24-5.49h9l2.86-8.94,3,8.94h8.45L41.1,98.43Z"/><path class="cls-2" d="M101.91,109.25a5.54,5.54,0,0,1-5.54-5.53V89.56A5.54,5.54,0,0,1,101.91,84h13.68v6.78H103.67v2.44h11.92V100H103.67v2.43h11.92v6.79Z"/><path class="cls-2" d="M71.37,89.56A5.53,5.53,0,0,0,65.84,84H50.74v25.22h7.31V90.81h6v18.44h7.3V89.56Z"/><path class="cls-2" d="M8.37,109.25a5.54,5.54,0,0,1-5.54-5.53V89.56A5.53,5.53,0,0,1,8.37,84H21.8v6.78H10.14v11.65H21.8v6.79Z"/><polygon class="cls-2" points="71.06 84.03 78.62 84.03 83.62 99.39 88.74 84.03 96.3 84.03 87.84 109.25 79.39 109.25 71.06 84.03 71.06 84.03"/><path class="cls-2" d="M156.13,109.25a5.54,5.54,0,0,0,5.54-5.53V98.78a5.53,5.53,0,0,0-5.54-5.53h-7.66V90.81h12.3V84H146.7a5.53,5.53,0,0,0-5.53,5.53V94.5A5.53,5.53,0,0,0,146.7,100h7.79v2.43H141.16v6.79Z"/><path class="cls-2" d="M183.07,109.25H169.39a5.54,5.54,0,0,1-5.54-5.53V89.56A5.54,5.54,0,0,1,169.39,84h13.68v6.78H171.15v2.44h11.92V100H171.15v2.43h11.92v6.79Z"/><path class="cls-2" d="M135,99.67a5.53,5.53,0,0,0,3.58-5.17V89.56A5.54,5.54,0,0,0,133.06,84H118.22v25.22h7.31V94.91l6.53,14.34h7.44L135,99.67Zm-3.47-6.44h-6V90.8h6v2.43Z"/><path class="cls-2" d="M189.19,85.15a2.44,2.44,0,0,0-1.77-.72,2.48,2.48,0,0,0-2.48,2.48,2.44,2.44,0,0,0,.72,1.77,2.5,2.5,0,0,0,3.53-3.53Zm-.25,3.29a2.14,2.14,0,0,1-3,0,2.16,2.16,0,0,1,0-3,2.14,2.14,0,0,1,3,0,2.16,2.16,0,0,1,0,3Z"/><path class="cls-2" d="M188.54,88.24a.38.38,0,0,1,0-.15c0-.07,0-.14,0-.2v-.2a.78.78,0,0,0-.14-.42.65.65,0,0,0-.48-.27,1.1,1.1,0,0,0,.4-.13.61.61,0,0,0,.27-.54.68.68,0,0,0-.43-.7,2.19,2.19,0,0,0-.74-.09h-1v2.73h.48V87.19h.38a1.14,1.14,0,0,1,.54.09.67.67,0,0,1,.26.63v.36h.45v0Zm-.75-1.45a1.28,1.28,0,0,1-.45.06h-.44v-1h.41a1.34,1.34,0,0,1,.58.1.49.49,0,0,1-.1.83Z"/></g></g></svg>