<svg xmlns="http://www.w3.org/2000/svg" viewBox="0 0 187.09 86.61"><defs><style>.cls-1{fill:#1d1d1b;fill-rule:evenodd;}</style></defs><title>newbalance</title><g id="Layer_2" data-name="Layer 2"><g id="Layer_1-2" data-name="Layer 1"><polygon class="cls-1" points="77.49 39.66 55.98 40.43 76.4 41.56 77.49 39.66 77.49 39.66 77.49 39.66"/><polygon class="cls-1" points="74.92 44.18 53.35 44.95 73.86 46.09 74.92 44.18 74.92 44.18 74.92 44.18"/><polygon class="cls-1" points="72.34 48.74 50.81 49.49 71.28 50.63 72.34 48.74 72.34 48.74 72.34 48.74"/><polygon class="cls-1" points="69.82 53.27 48.26 54.04 68.71 55.18 69.82 53.27 69.82 53.27 69.82 53.27"/><polygon class="cls-1" points="96.18 16.85 68.72 17.82 96.26 19.35 96.18 16.85 96.18 16.85 96.18 16.85"/><polygon class="cls-1" points="96 12.36 71.34 13.22 96.08 14.64 96 12.36 96 12.36 96 12.36"/><polygon class="cls-1" points="95.83 8.03 73.86 8.76 95.93 9.98 95.83 8.03 95.83 8.03 95.83 8.03"/><polygon class="cls-1" points="95.68 3.59 76.42 4.23 95.76 5.38 95.68 3.59 95.68 3.59 95.68 3.59"/><polygon class="cls-1" points="95.56 0 78.81 0 95.58 0.89 95.56 0 95.56 0 95.56 0"/><polygon class="cls-1" points="67.22 57.81 45.72 58.59 66.78 58.59 67.22 57.81 67.22 57.81 67.22 57.81"/><path class="cls-1" d="M140.12.14h-31l-.88,1.56,15.51.82h0c.18,0,.18.26-.07.26h0l-16.34.55-1.58,2.76L121.17,7h0c.2,0,.15.31,0,.31h0l-16.36.53-1.53,2.64,15.38.86h0c.34,0,.34.31,0,.31h0l-16.33.57L100.74,15l15.33.88h0c.34,0,.32.34,0,.34h0l-16.33.58-1.58,2.73,15.36.85h0c.23,0,.25.31-.06.31h0L66.39,22.25l44.67,2.48h0c.28,0,.26.36,0,.36h0L63.85,26.77l44.68,2.48h0c.2,0,.25.34,0,.34h0L61.24,31.3l44.68,2.48h0c.18,0,.36.36,0,.39h0L58.73,35.85l44.68,2.48h0c.13,0,.26.36,0,.36h0l-23.74.85.08,2.14,21.15,1.17h0c.15,0,.23.34,0,.34h0l-21,.75.1,2.39,18.36,1h0a.2.2,0,0,1-.06.39h0L80,48.38,80.06,51l15.64.86h0a.19.19,0,0,1-.07.37h0l-15.49.55.1,2.89,12.93.72h0c.18,0,.18.33-.08.33h0L80.3,57.2l0,1.24h41.72c11.07,0,21-8.07,22.86-14.48s1.86-12.2-7-15.09c5-1.14,13.6-6.74,15.31-14.48,1.55-7-1-14.22-13.08-14.25Zm-21,44.9H106.31l7.24-12.82h9.51c9.82,0,5.07,12.82-3.93,12.82Zm16.6-27.5c-.42,1.55-3.52,5.48-7.45,5.48h-9.51l6.1-10.76h4.86c6.2.21,6.41,3.73,6,5.28Z"/><path class="cls-1" d="M187.09,77a9.2,9.2,0,0,0-9.1-9.13,9.36,9.36,0,0,0-9.26,9.42,9.25,9.25,0,0,0,9.29,9.3,8.94,8.94,0,0,0,8.42-6.1h-4.71a4.21,4.21,0,0,1-3.84,2.16,4.88,4.88,0,0,1-4.64-3.52h13.61a12.41,12.41,0,0,0,.23-2.13Zm-14-1.24a5,5,0,0,1,4.93-4,4.86,4.86,0,0,1,4.84,4h-9.77Z"/><path class="cls-1" d="M125.92,68.75V70.2h0a7.37,7.37,0,0,0-5.41-2.27,8.87,8.87,0,0,0-8.61,9.13c0,4.87,3.5,9.24,8.7,9.24a6.8,6.8,0,0,0,5.68-2.4h0v2.29h3.93V68.75ZM121.11,82.6a5.41,5.41,0,1,1,5.41-5.41,5.41,5.41,0,0,1-5.41,5.41Z"/><path class="cls-1" d="M8.58,67.89A6,6,0,0,0,4,70H4V68.31H0V86.19H4.29V77.77h0c0-2.3.19-5.94,3.36-5.94,3,0,3.29,3.42,3.29,5.61h0v8.75h4.29V76.6h0a10.55,10.55,0,0,0-.87-5.13,6.5,6.5,0,0,0-5.78-3.58Z"/><path class="cls-1" d="M35.25,77a9.2,9.2,0,0,0-9.1-9.13,9.36,9.36,0,0,0-9.26,9.42,9.25,9.25,0,0,0,9.29,9.3,8.94,8.94,0,0,0,8.42-6.1H29.89a4.21,4.21,0,0,1-3.84,2.16,4.88,4.88,0,0,1-4.64-3.52H35A12.41,12.41,0,0,0,35.25,77Zm-14-1.24a5,5,0,0,1,4.93-4,4.86,4.86,0,0,1,4.84,4H21.28Z"/><polygon class="cls-1" points="105.85 86.17 110.14 86.17 110.14 62.33 105.85 62.33 105.85 86.17 105.85 86.17 105.85 86.17"/><path class="cls-1" d="M141.54,67.89A6,6,0,0,0,136.92,70h0V68.31h-4V86.19h4.29V77.77h0c0-2.3.2-5.94,3.36-5.94,3,0,3.29,3.42,3.29,5.61h0v8.75h4.29V76.6h0a10.55,10.55,0,0,0-.87-5.13,6.49,6.49,0,0,0-5.77-3.58Z"/><path class="cls-1" d="M158.89,71.83a4.24,4.24,0,0,1,4.17,2.45h4.83a9.22,9.22,0,0,0-8.83-6.39,9.36,9.36,0,0,0-9.43,9.3,9.46,9.46,0,0,0,9.43,9.42,9.59,9.59,0,0,0,7-3.13,7.87,7.87,0,0,0,1.8-3.16h-4.83a4.53,4.53,0,0,1-3.91,2.35,5.19,5.19,0,0,1-5.23-5.42c0-3.13,2.13-5.42,5-5.42Z"/><polygon class="cls-1" points="51.65 79.22 48.61 68.31 45.16 68.31 42.09 79.22 38.45 68.31 34.66 68.31 40.63 86.19 43.38 86.19 46.87 74.61 50.26 86.19 53.14 86.19 58.86 68.31 55.31 68.31 51.65 79.22 51.65 79.22 51.65 79.22"/><path class="cls-1" d="M74.64,67.91a7.36,7.36,0,0,0-5.41,2.28h0V62.33h-4.3V86.17h3.94V83.88h0a6.8,6.8,0,0,0,5.68,2.4c5.19,0,8.7-4.37,8.7-9.24a8.87,8.87,0,0,0-8.61-9.13ZM74,82.6a5.41,5.41,0,1,1,5.41-5.41A5.41,5.41,0,0,1,74,82.6Z"/><path class="cls-1" d="M98.69,68.75V70.2h0a7.35,7.35,0,0,0-5.41-2.27,8.87,8.87,0,0,0-8.61,9.13c0,4.87,3.5,9.24,8.7,9.24a6.8,6.8,0,0,0,5.68-2.4h0v2.29H103V68.75ZM93.88,82.6a5.41,5.41,0,1,1,5.42-5.41,5.41,5.41,0,0,1-5.42,5.41Z"/></g></g></svg>