<svg xmlns="http://www.w3.org/2000/svg" viewBox="0 0 308.72 161.06"><defs><style>.cls-1{fill:#1d1d1b;}</style></defs><title>nike</title><g id="Layer_2" data-name="Layer 2"><g id="Layer_1-2" data-name="Layer 1"><path class="cls-1" d="M38.76,55.61s-8,15.06-8,28.09c0,0-.72,30.68,31,30.68h4.34s6.37,2,116.09-30.68H154.42L153,49.24l-13,34.46H120L151.52,0h19.11l-8.68,24L182.5,0h60.22l-5.22,13.9H217l-6.37,17.65h19.11l-6.08,15.64H204.79l-7.52,20.55h22.58l-1.74,6.08S300,52.72,308.72,50.4c0,0-233.49,110.66-271.71,110.66,0,0-36.9.22-36.9-29.89C.11,131.17-4.09,103.09,38.76,55.61Zm135.05,22.3,28-75.66L172.08,33.9ZM128.07,0,97,83.7h19.3L147.57,0ZM41.61,83.7h19.3l13.9-36.48L73.26,83.7H93.72L125,0H105.88L91.6,37,93.91,0H73.26ZM255.07,4.13a4.06,4.06,0,0,1-.55,2.07A4.13,4.13,0,0,1,253,7.71a4.13,4.13,0,0,1-5.64-1.51,4.11,4.11,0,0,1,0-4.14A4.05,4.05,0,0,1,248.88.55a4.15,4.15,0,0,1,4.13,0,4.12,4.12,0,0,1,2.06,3.58Zm-.8,0a3.22,3.22,0,0,0-1-2.36,3.34,3.34,0,0,0-4.71,0,3.22,3.22,0,0,0-1,2.36,3.22,3.22,0,0,0,1,2.36,3.34,3.34,0,0,0,4.71,0A3.22,3.22,0,0,0,254.27,4.13Zm-5.21-2.21h2a1.75,1.75,0,0,1,1.21.34,1.16,1.16,0,0,1,.38.91,1.15,1.15,0,0,1-.29.77,1.67,1.67,0,0,1-.9.47,1.13,1.13,0,0,1,.37.21,2,2,0,0,1,.35.45s.25.43.72,1.27h-1.3a10.69,10.69,0,0,0-.85-1.51.62.62,0,0,0-.44-.24h-.13V6.34h-1.1Zm1.1,1.88h.48a1,1,0,0,0,.67-.16.48.48,0,0,0,.2-.4.53.53,0,0,0-.19-.4,1.06,1.06,0,0,0-.64-.15h-.52Z"/></g></g></svg>